<?xml version="1.0" standalone="no"?><!DOCTYPE svg PUBLIC "-//W3C//DTD SVG 1.1//EN" "http://www.w3.org/Graphics/SVG/1.1/DTD/svg11.dtd"><svg t="1622711307943" class="icon" viewBox="0 0 1024 1024" version="1.1" xmlns="http://www.w3.org/2000/svg" p-id="18049" xmlns:xlink="http://www.w3.org/1999/xlink" width="200" height="200"><defs><style type="text/css"></style></defs><path d="M705.66 21.333c74.728 0 110.78 6.962 148.243 26.998 34.009 18.188 60.912 45.09 79.1 79.1C953.037 164.892 960 200.945 960 275.673c0 19.637-15.919 35.555-35.556 35.555-19.636 0-35.555-15.918-35.555-35.555l-0.005-3.25-0.015-3.186-0.016-2.09-0.032-3.085-0.042-3.025-0.034-1.983-0.038-1.958-0.065-2.887-0.05-1.893-0.053-1.868-0.059-1.842-0.096-2.718-0.106-2.662-0.076-1.745-0.123-2.573-0.133-2.52-0.143-2.467-0.1-1.617-0.16-2.383-0.17-2.333-0.12-1.528-0.187-2.252-0.197-2.204-0.137-1.443-0.214-2.127-0.224-2.08-0.155-1.363-0.24-2.007-0.252-1.964-0.173-1.285-0.268-1.893-0.184-1.24-0.189-1.22-0.292-1.799-0.2-1.177-0.204-1.16-0.21-1.142-0.213-1.127c-2.808-14.54-6.647-24.95-13.418-37.612-11.56-21.616-28.313-38.368-49.929-49.928-12.386-6.625-22.618-10.442-36.67-13.234l-1.503-0.292-1.135-0.211-1.15-0.207-1.76-0.302-1.194-0.196-1.212-0.19-1.23-0.187-1.249-0.182-1.267-0.178-1.285-0.173-1.304-0.168-1.324-0.164-1.342-0.16-1.363-0.155-1.382-0.15-1.402-0.146-1.423-0.142-1.444-0.137-1.464-0.132-1.485-0.128-2.268-0.184-1.539-0.117-2.35-0.166-2.399-0.157-2.45-0.146-1.663-0.092-2.538-0.13-2.59-0.12-1.757-0.073-2.68-0.103-2.737-0.093-2.792-0.082-2.849-0.072-2.907-0.063-1.97-0.035-3.005-0.046-3.064-0.035-3.125-0.025-3.187-0.016-3.25-0.005-389.492 0.003-3.207 0.011-2.104 0.014-3.105 0.028-3.045 0.04-2.985 0.048-2.926 0.059-2.868 0.069-2.81 0.079-2.756 0.089-2.699 0.1-2.644 0.109-2.59 0.12-2.538 0.129-1.662 0.092-2.451 0.146-2.4 0.157-1.572 0.11-2.316 0.173-2.268 0.184-1.485 0.128-1.464 0.132-1.444 0.137-1.423 0.142-1.402 0.146-1.382 0.15-1.363 0.155-1.342 0.16-1.324 0.164-1.304 0.168-1.285 0.173-1.267 0.178-1.248 0.182-1.23 0.186-1.213 0.191-1.194 0.196-1.76 0.302-1.15 0.207-1.135 0.21-0.56 0.108c-14.542 2.808-24.952 6.647-37.613 13.419-21.616 11.56-38.368 28.312-49.929 49.928-6.771 12.662-10.61 23.072-13.418 37.612l-0.214 1.127-0.209 1.142-0.204 1.16-0.2 1.177-0.292 1.799-0.282 1.838-0.182 1.248-0.177 1.267-0.173 1.285-0.251 1.964-0.241 2.007-0.155 1.362-0.224 2.081-0.214 2.127-0.137 1.443-0.197 2.204-0.187 2.252-0.12 1.528-0.17 2.333-0.16 2.383-0.1 1.617-0.143 2.467-0.133 2.52-0.123 2.573-0.076 1.745-0.072 1.769-0.1 2.699-0.089 2.754-0.053 1.868-0.073 2.85-0.042 1.93-0.038 1.958-0.034 1.983-0.042 3.025-0.032 3.084-0.022 3.146-0.012 3.208-0.002 2.173v473.742l0.01 3.229 0.018 3.166 0.04 4.126 0.042 3.025 0.034 1.983 0.038 1.958 0.065 2.887 0.05 1.893 0.053 1.868 0.059 1.842 0.096 2.718 0.106 2.662 0.076 1.745 0.123 2.573 0.133 2.52 0.143 2.467 0.1 1.617 0.16 2.383 0.17 2.333 0.12 1.528 0.187 2.252 0.197 2.204 0.137 1.443 0.214 2.127 0.224 2.08 0.155 1.363 0.24 2.007 0.252 1.964 0.173 1.285 0.268 1.893 0.184 1.24 0.189 1.22 0.292 1.799 0.2 1.177 0.204 1.16 0.21 1.142 0.213 1.127c2.808 14.54 6.647 24.95 13.418 37.612 11.56 21.616 28.313 38.368 49.929 49.928 12.386 6.625 22.618 10.442 36.67 13.234l1.503 0.292 1.135 0.211 1.15 0.207 1.76 0.302 1.194 0.196 1.212 0.19 1.23 0.187 1.249 0.182 1.267 0.178 1.285 0.173 1.304 0.168 1.324 0.164 1.342 0.16 1.363 0.155 1.382 0.15 1.402 0.146 1.423 0.142 1.444 0.137 1.464 0.132 1.485 0.128 2.268 0.184 1.539 0.117 2.35 0.166 2.399 0.157 2.45 0.146 1.663 0.092 2.538 0.13 2.59 0.12 1.757 0.073 2.68 0.103 2.737 0.093 2.792 0.082 2.849 0.072 2.907 0.063 1.97 0.035 3.005 0.046 3.064 0.035 3.125 0.025 3.187 0.016 3.25 0.005 389.492-0.003 3.207-0.011 2.104-0.014 3.105-0.028 3.045-0.04 2.985-0.048 2.926-0.059 2.868-0.069 2.81-0.079 2.756-0.089 2.699-0.1 2.644-0.109 2.59-0.12 2.538-0.129 1.662-0.092 2.451-0.146 2.4-0.157 1.572-0.11 2.316-0.173 2.268-0.184 1.485-0.128 1.464-0.132 1.444-0.137 1.423-0.142 1.402-0.146 1.382-0.15 1.363-0.155 1.342-0.16 1.324-0.164 1.304-0.168 1.285-0.173 1.267-0.178 1.248-0.182 1.23-0.186 1.213-0.191 1.194-0.196 1.76-0.302 1.15-0.207 1.135-0.21 0.56-0.108c14.542-2.808 24.952-6.647 37.613-13.419 21.616-11.56 38.368-28.312 49.929-49.928 6.771-12.662 10.61-23.072 13.418-37.612l0.214-1.127 0.209-1.142 0.204-1.16 0.2-1.177 0.292-1.799 0.282-1.838 0.182-1.248 0.177-1.267 0.173-1.285 0.251-1.964 0.241-2.007 0.155-1.362 0.224-2.081 0.214-2.127 0.137-1.443 0.197-2.204 0.187-2.252 0.12-1.528 0.17-2.333 0.16-2.383 0.1-1.617 0.143-2.467 0.133-2.52 0.123-2.573 0.076-1.745 0.072-1.769 0.1-2.699 0.089-2.754 0.053-1.868 0.073-2.85 0.042-1.93 0.038-1.958 0.034-1.983 0.042-3.025 0.032-3.084 0.022-3.146 0.012-3.208 0.002-2.173c0-19.637 15.919-35.555 35.555-35.555 19.637 0 35.556 15.918 35.556 35.555 0 74.728-6.962 110.78-26.998 148.244-18.187 34.008-45.09 60.911-79.099 79.1-37.088 19.834-72.794 26.856-146.013 26.997H318.34c-74.728 0-110.78-6.962-148.243-26.998-34.009-18.188-60.912-45.09-79.1-79.1C71.163 859.483 64.142 823.776 64 750.558V275.674c0-74.728 6.962-110.78 26.998-148.244 18.187-34.008 45.09-60.911 79.099-79.1 37.088-19.834 72.794-26.856 146.013-26.997h389.55zM960.8 461.421c22.217 22.216 22.217 58.236 0 80.453L598.763 903.913H518.31v-80.454l362.038-362.038c22.217-22.217 58.237-22.217 80.453 0z" fill="#FFB60E" p-id="18050"></path><path d="M597.333 433.778c19.637 0 35.556 15.919 35.556 35.555 0 19.44-15.602 35.237-34.968 35.551l-0.588 0.005H256c-19.637 0-35.556-15.919-35.556-35.556 0-19.44 15.602-35.236 34.968-35.55l0.588-0.005h341.333z m0-199.111c19.637 0 35.556 15.918 35.556 35.555 0 19.44-15.602 35.237-34.968 35.551l-0.588 0.005H256c-19.637 0-35.556-15.919-35.556-35.556 0-19.44 15.602-35.237 34.968-35.55l0.588-0.005h341.333z" fill="#FF6E3D" p-id="18051"></path></svg>